<svg width="56" height="40" viewBox="0 0 56 40" fill="none" xmlns="http://www.w3.org/2000/svg">
    <line x1="22.4797" y1="12.8589" x2="27.4797" y2="29.8589" stroke="#FBFBFB" />
    <line x1="28" y1="32.5" x2="33" y2="32.5" stroke="#FBFBFB" />
    <line x1="19.0001" y1="9.5" x2="30.0001" y2="9.50134" stroke="#FBFBFB" />
    <line x1="34" y1="32.5" x2="25" y2="32.5" stroke="#FBFBFB" />
    <path
        d="M35.128 33V9.848C35.8427 9.688 36.6053 9.54933 37.416 9.432C38.2267 9.304 39.064 9.208 39.928 9.144C40.792 9.06933 41.6613 9.032 42.536 9.032C45.9387 9.032 48.4987 9.65067 50.216 10.888C51.9333 12.1147 52.792 14.0347 52.792 16.648C52.792 18.3333 52.3867 19.7467 51.576 20.888C50.7653 22.0187 49.608 22.872 48.104 23.448C46.6107 24.024 44.824 24.312 42.744 24.312C42.2747 24.312 41.8427 24.3067 41.448 24.296C41.0533 24.2747 40.648 24.2533 40.232 24.232V33H35.128ZM49.064 33L41.448 22.056H47.016L54.744 33H49.064ZM42.84 20.44C44.5573 20.44 45.832 20.1413 46.664 19.544C47.496 18.9467 47.912 17.9813 47.912 16.648C47.912 15.7733 47.736 15.0587 47.384 14.504C47.032 13.9387 46.4987 13.5227 45.784 13.256C45.0693 12.9893 44.1627 12.856 43.064 12.856C42.52 12.856 42.0187 12.8773 41.56 12.92C41.1013 12.9627 40.6587 13.0267 40.232 13.112V20.312C40.5413 20.3333 40.8293 20.36 41.096 20.392C41.3733 20.4133 41.6507 20.4293 41.928 20.44C42.216 20.44 42.52 20.44 42.84 20.44Z"
        fill="#FBFBFB" />
    <line x1="26.4797" y1="12.8589" x2="31.4797" y2="29.8589" stroke="#FBFBFB" />
    <line x1="27" y1="29.5" x2="24" y2="29.5" stroke="#FBFBFB" />
    <line x1="26" y1="12.5" x2="29" y2="12.5" stroke="#FBFBFB" />
    <line x1="29.5" y1="13" x2="29.5" y2="9" stroke="#FBFBFB" />
    <line x1="31" y1="29.5" x2="34" y2="29.5" stroke="#FBFBFB" />
    <line x1="23" y1="12.5" x2="19" y2="12.5" stroke="#FBFBFB" />
    <line x1="19.5" y1="13" x2="19.5" y2="10" stroke="#FBFBFB" />
    <line x1="34.5" y1="33" x2="34.5" y2="29" stroke="#FBFBFB" />
    <mask id="path-14-outside-1_173_43" maskUnits="userSpaceOnUse" x="2" y="9" width="24"
        height="24" fill="black">
        <rect fill="white" x="2" y="9" width="24" height="24" />
        <path
            d="M3.38944 32L10.4877 10.022H17.5118L24.6101 32H19.8581L13.7102 12.1307H14.2151L8.08204 32H3.38944ZM8.31964 26.1342L9.35914 22.2881H18.6255L19.6502 26.1342H8.31964Z" />
    </mask>
    <path
        d="M3.38944 32L2.43784 31.6927L2.01561 33H3.38944V32ZM10.4877 10.022V9.022H9.75985L9.53614 9.71466L10.4877 10.022ZM17.5118 10.022L18.4634 9.71466L18.2397 9.022H17.5118V10.022ZM24.6101 32V33H25.9839L25.5617 31.6927L24.6101 32ZM19.8581 32L18.9028 32.2956L19.1207 33H19.8581V32ZM13.7102 12.1307V11.1307H12.354L12.7549 12.4263L13.7102 12.1307ZM14.2151 12.1307L15.1706 12.4256L15.5703 11.1307H14.2151V12.1307ZM8.08204 32V33H8.81993L9.03756 32.2949L8.08204 32ZM8.31964 26.1342L7.35428 25.8733L7.01349 27.1342H8.31964V26.1342ZM9.35914 22.2881V21.2881H8.59353L8.39378 22.0272L9.35914 22.2881ZM18.6255 22.2881L19.5918 22.0307L19.394 21.2881H18.6255V22.2881ZM19.6502 26.1342V27.1342H20.9515L20.6165 25.8768L19.6502 26.1342ZM4.34104 32.3073L11.4393 10.3293L9.53614 9.71466L2.43784 31.6927L4.34104 32.3073ZM10.4877 11.022H17.5118V9.022H10.4877V11.022ZM16.5602 10.3293L23.6585 32.3073L25.5617 31.6927L18.4634 9.71466L16.5602 10.3293ZM24.6101 31H19.8581V33H24.6101V31ZM20.8134 31.7044L14.6655 11.8351L12.7549 12.4263L18.9028 32.2956L20.8134 31.7044ZM13.7102 13.1307H14.2151V11.1307H13.7102V13.1307ZM13.2596 11.8358L7.12653 31.7051L9.03756 32.2949L15.1706 12.4256L13.2596 11.8358ZM8.08204 31H3.38944V33H8.08204V31ZM9.28501 26.3952L10.3245 22.549L8.39378 22.0272L7.35428 25.8733L9.28501 26.3952ZM9.35914 23.2881H18.6255V21.2881H9.35914V23.2881ZM17.6592 22.5455L18.6839 26.3917L20.6165 25.8768L19.5918 22.0307L17.6592 22.5455ZM19.6502 25.1342H8.31964V27.1342H19.6502V25.1342Z"
        fill="#FBFBFB" mask="url(#path-14-outside-1_173_43)" />
</svg>