<svg width="95" height="45" viewBox="0 0 95 45" fill="none" xmlns="http://www.w3.org/2000/svg">
<g filter="url(#filter0_dd_147_49)">
<path d="M19.024 36.456C15.568 36.456 12.736 35.904 10.528 34.8C8.32 33.696 6.688 32.024 5.632 29.784C4.576 27.528 4.048 24.696 4.048 21.288V0.48H11.824V22.056C11.824 24.872 12.424 26.912 13.624 28.176C14.824 29.44 16.624 30.072 19.024 30.072C21.424 30.072 23.216 29.44 24.4 28.176C25.6 26.912 26.2 24.872 26.2 22.056V0.48H33.832V21.288C33.832 24.696 33.312 27.528 32.272 29.784C31.232 32.024 29.616 33.696 27.424 34.8C25.232 35.904 22.432 36.456 19.024 36.456ZM46.9634 36L37.5794 0.48H45.4754L53.4914 32.568H51.5474L60.1154 0.48H68.7314L77.0114 32.568H75.2114L83.4194 0.48H90.8114L81.4274 36H71.4194L63.3314 5.232H65.3954L56.9714 36H46.9634Z" fill="url(#paint0_linear_147_49)"/>
</g>
<defs>
<filter id="filter0_dd_147_49" x="0.0480042" y="0.47998" width="94.7634" height="43.976" filterUnits="userSpaceOnUse" color-interpolation-filters="sRGB">
<feFlood flood-opacity="0" result="BackgroundImageFix"/>
<feColorMatrix in="SourceAlpha" type="matrix" values="0 0 0 0 0 0 0 0 0 0 0 0 0 0 0 0 0 0 127 0" result="hardAlpha"/>
<feOffset dy="4"/>
<feGaussianBlur stdDeviation="2"/>
<feComposite in2="hardAlpha" operator="out"/>
<feColorMatrix type="matrix" values="0 0 0 0 0 0 0 0 0 0 0 0 0 0 0 0 0 0 0.25 0"/>
<feBlend mode="normal" in2="BackgroundImageFix" result="effect1_dropShadow_147_49"/>
<feColorMatrix in="SourceAlpha" type="matrix" values="0 0 0 0 0 0 0 0 0 0 0 0 0 0 0 0 0 0 127 0" result="hardAlpha"/>
<feOffset dy="4"/>
<feGaussianBlur stdDeviation="2"/>
<feComposite in2="hardAlpha" operator="out"/>
<feColorMatrix type="matrix" values="0 0 0 0 0 0 0 0 0 0 0 0 0 0 0 0 0 0 0.25 0"/>
<feBlend mode="normal" in2="effect1_dropShadow_147_49" result="effect2_dropShadow_147_49"/>
<feBlend mode="normal" in="SourceGraphic" in2="effect2_dropShadow_147_49" result="shape"/>
</filter>
<linearGradient id="paint0_linear_147_49" x1="46.5" y1="-13" x2="46.5" y2="47" gradientUnits="userSpaceOnUse">
<stop offset="0.445" stop-color="#FFBD69"/>
<stop offset="1" stop-color="#99713F"/>
</linearGradient>
</defs>
</svg>
